<svg xmlns="http://www.w3.org/2000/svg" width="20" height="20" viewBox="0 0 20 20">
    <g fill="none" fill-rule="evenodd">
        <path d="M-2-2h24v24H-2z"/>
        <path fill="#FFF" fill-rule="nonzero" d="M10 .571C4.795.571.571 4.795.571 10S4.795 19.429 10 19.429s9.429-4.224 9.429-9.429S15.205.571 10 .571zm0 3.772a2.447 2.447 0 0 1 2.451 2.451A2.447 2.447 0 0 1 10 9.246a2.447 2.447 0 0 1-2.451-2.452A2.447 2.447 0 0 1 10 4.343zm4.318 11.314H5.682c-.641 0-1.094-.603-.962-1.207.566-2.413 2.715-4.205 5.28-4.205 2.565 0 4.714 1.792 5.28 4.205.132.604-.32 1.207-.962 1.207z"/>
    </g>
</svg>
