<svg xmlns="http://www.w3.org/2000/svg" width="18" height="17" viewBox="0 0 18 17">
    <g fill="none" fill-rule="evenodd">
        <path d="M-3-4h24v24H-3z"/>
        <path fill="#FFF" fill-rule="nonzero" d="M16.605 13.421v.895c0 .984-.805 1.79-1.79 1.79H2.29C1.296 16.105.5 15.3.5 14.315V1.789C.5.805 1.296 0 2.29 0h12.526c.984 0 1.79.805 1.79 1.79v.894H8.552c-.994 0-1.79.805-1.79 1.79v7.158c0 .984.796 1.79 1.79 1.79h8.052zm-8.052-1.79H17.5V4.475H8.553v7.158zm3.579-2.236a1.34 1.34 0 0 1-1.343-1.342c0-.743.6-1.342 1.343-1.342.742 0 1.342.599 1.342 1.342 0 .742-.6 1.342-1.342 1.342z"/>
    </g>
</svg>
