<svg xmlns="http://www.w3.org/2000/svg" width="66" height="23" viewBox="0 0 66 23">
    <g fill="#FFF" fill-rule="evenodd">
        <path d="M29.04 10.071a54.81 54.81 0 0 0-2.01 4.476c-.091.226-.204.249-.363.09-.316-.339-.542-1.017-.203-2.237.565-2.057 2.69-6.352 4.68-9.472-.77-.067-1.176-.406-1.448-.904-.113-.226-.045-.339.25-.384 1.898-.226 3.593-1.153 5.108-1.22 1.152-.046 2.147.293 2.69 1.83.474 1.357.158 2.735-.701 3.888-1.22 1.628-3.662 3.052-6.171 3.64.859 1.062 1.673 2.147 2.147 3.096.317.61.407 1.38.113 1.831-.113.181-.226.249-.361.045-1.492-2.034-2.668-3.503-3.73-4.679zm3.482-7.278c0 .633-.249 1.424-.859 2.554-.61 1.085-1.175 2.034-1.786 3.142 4.996-1.108 7.55-4.408 6.895-6.013-.498-1.265-2.758-.09-4.25.317zm9.923 4.34c.294-.543.565-1.017.814-1.379.203-.294.384-.34.542-.136.34.407.52 1.38-.022 2.51-.497 1.017-1.628 2.712-2.17 3.91-.565 1.266-.588 2.238.18 2.193.927-.046 2.17-1.583 2.962-3.142.113-.204.271-.226.361-.023.09.203.09.768-.203 1.401-.588 1.244-2.012 2.487-3.255 2.419-1.22-.068-1.853-.791-1.853-1.853-.724.926-1.741 1.763-2.826 1.763-2.102 0-2.532-2.871-.656-5.606 1.831-2.667 3.617-3.685 4.747-3.685.972 0 1.424.746 1.38 1.628zm-1.966 3.503c1.424-2.486 1.627-3.887.972-3.955-.724-.068-2.374 1.401-3.617 3.413-1.198 1.944-1.492 3.933-.61 3.956.926.022 2.102-1.424 3.255-3.414zm12.568 1.65c-.882 1.402-2.464 2.261-4.34 3.03-1.266 3.028-2.871 6.668-4.747 7.391-.43.158-.86.158-1.289-.475-.452-.678-.904-1.469-.452-2.803.678-2.034 2.6-3.39 4.837-4.272.227-.52.453-1.085.701-1.627-.7.723-1.56 1.31-2.464 1.243-1.627-.136-1.672-1.786-1.152-3.278.497-1.446 1.604-3.684 3.074-5.718.18-.25.407-.226.565 0 .542.723.407 1.672-.43 3.006-.813 1.311-1.31 2.238-1.74 3.3-.452 1.108-.407 1.899.113 1.944.881.068 2.012-1.379 3.164-3.345.972-1.673 1.944-3.707 2.736-4.86.203-.294.361-.34.565-.158.316.406.497 1.378-.09 2.531-.679 1.311-2.058 4.024-3.007 6.216a12.034 12.034 0 0 0 4-3.48c.114-.159.317-.182.362.045.046.203-.022.723-.406 1.31zm-6.375 3.82c-2.938 1.696-3.956 4.793-3.549 5.358.294.43 2.148-2.035 3.55-5.357zm8.522-5.786c.859.271 1.198 1.13 1.175 2.622 0 .249-.022.497-.045.769.86-.565 1.763-1.696 2.351-2.871.136-.271.362-.294.475.023.113.339-.023.836-.226 1.356-.226.542-1.357 1.876-2.713 2.35-.362 2.284-1.356 4.793-2.441 6.149-.769.95-1.334 1.04-2.012.452-.565-.475-1.243-1.356-.994-3.278.632-5.04 5.831-13.698 8.34-17.45.181-.271.475-.249.566.023.27.768.203 1.74-.769 3.39-.927 1.537-2.486 4.092-3.707 6.465zm-.113 3.752c.113-.542.18-1.107.203-1.627.023-.837-.203-1.537-.361-1.47-.226.09-.43 1.289-.452 1.809-.023.723.18 1.198.61 1.288zm-1.515-.248c-1.265 3.006-2.08 5.809-1.56 6.464.498.656 2.193-2.463 2.94-5.56-.656-.068-1.108-.362-1.38-.904zm7.595-8.138c-.768 0-1.288-.339-1.469-.588-.226-.316-.09-.474.249-.452.633.023 1.266-.022 1.876-.09.7-1.243 1.334-2.306 1.718-2.803.203-.294.43-.271.542 0 .249.633.249 1.379-.293 2.554.881-.022 1.22.385 1.401.678.158.272.068.43-.271.43-.498-.068-1.198 0-1.763.09-.882 1.515-2.17 3.707-3.03 5.606-.745 1.65-.497 3.052.453 3.097 1.017.045 2.305-1.56 3.142-3.255.135-.271.384-.317.474 0 .113.362 0 .768-.226 1.288-.293.656-1.785 2.645-3.594 2.577-1.492-.045-2.69-1.718-1.605-4.317.475-1.13 1.424-3.03 2.396-4.815z"/>
        <g fill-rule="nonzero" opacity=".9">
            <path d="M2.817 13.464l1.878-.034.862-.02c.26-.012.52-.008.778.012.863.077 1.69.38 2.4.88a.26.26 0 0 0 .348-.08.247.247 0 0 0-.027-.336 5.206 5.206 0 0 0-2.639-1.18 6.57 6.57 0 0 0-.862-.058l-.87-.02-1.427-.022c.051-3.133.078-6.876.084-10.647H6.01a4.599 4.599 0 0 1 3.187 1.493l.04.038a.49.49 0 0 0 .04.029c-.325 1.862-.318 6.778.025 8.44 0 .031.134.054.282.053.147-.002.24-.025.245-.052.343-1.663.35-6.577.025-8.432a.496.496 0 0 0 .086-.076 4.626 4.626 0 0 1 3.037-1.547c.138-.015.269-.017.414-.023h.443l.862-.013 1.229-.023c.038 2.156.084 3.677.14 4.837a.25.25 0 0 0 .275.22.243.243 0 0 0 .238-.22c.038-.81.073-1.798.104-3.053.327.087.662.144 1 .17l.27.024v.3c0 1.026.092 2.05.27 2.56.089.03.183.04.276.031a.546.546 0 0 0 .238-.03c.178-.51.27-1.534.27-2.56V3.55a.667.667 0 0 0 0-.073.753.753 0 0 0-.68-.642h-.096l-.18.011-.347.029a5.772 5.772 0 0 0-.987.167c.012-.497.021-1.031.03-1.61a.397.397 0 0 0-.383-.404h-.015L14.705.993 13.843.98H13.4c-.153 0-.324 0-.487.013a5.511 5.511 0 0 0-3.332 1.41A5.557 5.557 0 0 0 6.559.962a3.368 3.368 0 0 0-.5-.044H2.815a.527.527 0 0 0-.516.511v1.635a33.976 33.976 0 0 0-.73-.05l-.511-.029H.849a.619.619 0 0 0-.242.073.611.611 0 0 0-.241.236.627.627 0 0 0-.077.306C.255 4.366.228 5.22.205 6.148a253.034 253.034 0 0 0-.069 6.097v2.737a.766.766 0 0 0 .652.724H.956c1.027-.012 2.022-.027 2.95-.05l1.34-.036c.211 0 .432-.018.598-.016a3.235 3.235 0 0 1 2.075.834c.04.023.088.027.131.011a.383.383 0 0 0 .163-.109.504.504 0 0 0 .096-.145.102.102 0 0 0 0-.113 3.528 3.528 0 0 0-2.403-1.292c-.238-.021-.435-.021-.65-.03l-1.341-.037c-.864-.021-1.786-.036-2.738-.046v-.845-1.587c0-2.12-.023-4.242-.07-6.097-.02-.895-.047-1.725-.08-2.468h.012l.511-.029c.272-.015.522-.032.75-.052.009 3.375.038 6.66.086 9.428v.015a.427.427 0 0 0 .43.422z"/>
            <path d="M19.016 8.409a.515.515 0 0 0-.502-.49 8.723 8.723 0 0 0-2.052.174 8.368 8.368 0 0 0-1.916.68 7.962 7.962 0 0 0-3.727 4.001c-.092.26-.192.51-.266.767-.075.256-.142.504-.192.728-.15.747-.286 1.418-.397 1.977a9.53 9.53 0 0 0-1.21 1.55c-.012.02.066.123.172.225.105.101.18.157.191.147 1.123-.6 3.71-3.19 4.316-4.302.01-.019-.067-.118-.169-.22-.102-.102-.176-.151-.192-.142-.532.29-1.406 1.037-2.238 1.857.087-.287.177-.591.269-.912.06-.232.143-.433.214-.661.071-.228.192-.439.278-.669.227-.463.5-.902.814-1.31a7.303 7.303 0 0 1 2.593-2.12 7.653 7.653 0 0 1 1.679-.575 7.502 7.502 0 0 1 1.29-.15 7.226 7.226 0 0 1-.52 2.515l-1.966.935h-.015a.475.475 0 0 0 .015.866l.722.307a7.6 7.6 0 0 1-1.533 1.366 8.196 8.196 0 0 1-1.85.91c-.081.029-.116.17-.074.312.043.142.129.213.211.192a7.14 7.14 0 0 0 2.095-.784 7.766 7.766 0 0 0 2.238-1.916.445.445 0 0 0-.157-.68h-.018l-.28-.132 1.22-.533a.492.492 0 0 0 .25-.247v-.012a7.975 7.975 0 0 0 .704-3.64l.003-.014z"/>
        </g>
    </g>
</svg>
