<svg xmlns="http://www.w3.org/2000/svg" width="17" height="21" viewBox="0 0 17 21">
    <g fill="none" fill-rule="evenodd" transform="translate(-4)">
        <path d="M0 0h24v24H0z"/>
        <path fill="#FFF" fill-rule="nonzero" d="M12.013 21c1.016 0 1.846-.83 1.846-1.846h-3.692c0 1.015.822 1.846 1.846 1.846zm5.539-5.538v-4.616c0-2.834-1.514-5.206-4.154-5.834v-.627c0-.767-.619-1.385-1.385-1.385s-1.384.618-1.384 1.385v.627c-2.65.628-4.154 2.991-4.154 5.834v4.616l-1.846 1.846v.923h14.769v-.923l-1.846-1.846z"/>
        <circle cx="19" cy="2" r="2" fill="#20CDBB"/>
    </g>
</svg>
