<svg xmlns="http://www.w3.org/2000/svg" width="20" height="18" viewBox="0 0 20 18">
    <g fill="none" fill-rule="evenodd">
        <path d="M-3-3h24v24H-3z"/>
        <g fill="#FFF" fill-rule="nonzero">
            <path d="M15.455 9.791c-.238.225-.454.448-.677.673l-2.686 2.684c-.539.539-1.073 1.082-1.617 1.615l-.028.028c-.119.11-.25.123-.398.132-.245.013-.49.026-.734.037l-1.4.071a.437.437 0 0 1-.433-.433l.013-.279c.03-.651.06-1.303.093-1.957a.902.902 0 0 1 .009-.075l.002-.013a.446.446 0 0 1 .115-.219l.032-.032 1.775-1.775 1.318-1.318 1.85-1.85c.386-.386.777-.773 1.163-1.158.532-.533 1.06-1.065 1.601-1.598V.974c0-.024-.004-.046 0-.067 0-.013-.004-.026-.004-.037 0-.009-.007-.024-.007-.035-.01-.05-.021-.101-.036-.151l-.029-.082-.002-.005c-.028-.054-.054-.108-.086-.16l-.044-.065c.003.002.005.005.005.007-.007-.011-.015-.022-.015-.024l.006.013.002.004-.004-.004a2.047 2.047 0 0 0-.117-.121c-.004-.005-.022-.02-.037-.037l.007.004a.047.047 0 0 0-.011-.006l.004.004-.004-.002-.035-.024A1.424 1.424 0 0 0 14.901.1l-.034-.02h-.005c-.013-.002-.028-.01-.04-.015a1.6 1.6 0 0 0-.183-.05l-.02-.004c0 .002-.055-.007-.068-.007-.026-.002-.05-.002-.076-.002H1.593c-.07 0-.184.02-.245.009l-.02.004-.083.02a.52.52 0 0 0-.083.026l-.04.015c-.066.021.025-.011.023-.011C1.13.055 1 .139.983.149L.91.195.905.199.909.195C.931.173.913.19.896.205A.016.016 0 0 1 .905.202C.859.245.809.284.766.331L.714.39.71.396a1.94 1.94 0 0 0-.121.208v0C.595.545.582.625.576.645.556.703.539.766.528.827L.524.85.517.933l.002.05c0 .017.003.032.003.05v15.286c0 .037-.003.073-.003.112 0 .042.018.104.01.145v.007c.006.028.01.056.019.084.008.033.017.065.028.098.004.013.008.028.013.04.004.016.008.025.008.029l-.02-.052c-.01.013.068.134.079.152.017.028.034.056.054.082l.004.006c.041.041.078.089.121.13.022.022.046.04.07.06a1.668 1.668 0 0 0 .162.1l.052.026h0c-.058-.006.02.007.041.013.054.018.11.033.167.046l.043.006a.94.94 0 0 0 .078.004h13.046c.03 0 .061-.002.09-.004.008 0 .023-.004.036-.004.056-.011.11-.024.164-.04.026-.008.052-.019.08-.027l-.008.004c.01-.004.021-.006.024-.009-.003 0-.007 0-.013.003 0 0 .002 0 .002-.003.058-.03.117-.06.17-.097l.038-.024c-.055.035.017-.017.032-.028.045-.041.089-.084.128-.13l.017-.02.041-.06a1.64 1.64 0 0 0 .087-.16l.002-.004c.01-.033.022-.063.03-.096.015-.052.02-.106.033-.158 0-.008.006-.02.006-.028.002-.03.004-.06.004-.09v-6.64h-.002zM3.117 2.576h.017c.394-.01.79 0 1.184 0h8.52c.364 0 .635.298.65.649.015.35-.31.65-.65.65h-.017c-.394.008-.79 0-1.184 0h-8.52c-.364 0-.634-.3-.65-.65-.015-.35.31-.65.65-.65zm0 3.657h6.69c.363 0 .634.299.649.65.015.35-.31.649-.65.649h-6.69c-.363 0-.633-.299-.649-.65-.015-.35.31-.649.65-.649zm2.363 8.592H3.117c-.364 0-.634-.298-.65-.649-.015-.35.31-.65.65-.65h2.36c.364 0 .635.3.65.65.018.35-.307.65-.647.65zm.866-3.657h-3.23c-.363 0-.633-.299-.649-.65-.015-.35.31-.649.65-.649h3.227c.363 0 .634.299.649.65.017.35-.307.649-.647.649z"/>
            <path d="M17.384 6.63c-.362.359-.717.716-1.074 1.075l-.262.262-.17.17-.433.434c-.076.075-.152.149-.226.225-.681.681-1.363 1.361-2.043 2.043l-2.168 2.168c-.353.353-.719.695-1.063 1.057l-1.578.082.072-1.5.004-.09 1.415-1.416c.522-.522 1.041-1.044 1.563-1.563l1.619-1.619 1.203-1.203 1.202-1.204.428-.428c.002.002.002.004.004.004l.433.433c.357.353.717.71 1.074 1.07zM19.232 4.78l-1.234 1.235-.002.002-1.51-1.51c.4-.403.809-.808 1.212-1.21.008-.01.017-.016.026-.025a41111.855 41111.855 0 0 0 .077.078l.427.427.015.015.941.941.026.026a.103.103 0 0 1 .022.022z"/>
        </g>
    </g>
</svg>
